PathFileType	4	(X/Y/Z)	Patient4_TMGait_0pt3_02_left_04.trc.trc
DataRate	CameraRate	NumFrames	NumMarkers	Units	OrigDataRate	OrigDataStartFrame	OrigNumFrames
48.780487804878	48.780487804878	4	33	mm	48.780487804878	18	       141
Frame#	Time	Sacral			L.Shoulder			Chest			R.Shoulder			Neck			R.ASIS			L.ASIS			R.Thigh.Superior			R.Thigh.Lateral			R.Thigh.Inferior			R.Patella			L.Thigh.Superior			L.Thigh.Lateral			L.Thigh.Inferior			L.Patella			L.Shank.Superior			L.Shank.Lateral			L.Shank.Inferior			R.Shank.Superior			R.Shank.Lateral			R.Shank.Inferior			R.Heel			R.Midfoot.Superior			R.Midfoot.Lateral			R.Toe			L.Heel			L.Midfoot.Lateral			L.Midfoot.Superior			L.Toe			L.Elbow			L.Wrist			R.Elbow			R.Wrist			
		X1	Y1	Z1	X2	Y2	Z2	X3	Y3	Z3	X4	Y4	Z4	X5	Y5	Z5	X6	Y6	Z6	X7	Y7	Z7	X8	Y8	Z8	X9	Y9	Z9	X10	Y10	Z10	X11	Y11	Z11	X12	Y12	Z12	X13	Y13	Z13	X14	Y14	Z14	X15	Y15	Z15	X16	Y16	Z16	X17	Y17	Z17	X18	Y18	Z18	X19	Y19	Z19	X20	Y20	Z20	X21	Y21	Z21	X22	Y22	Z22	X23	Y23	Z23	X24	Y24	Z24	X25	Y25	Z25	X26	Y26	Z26	X27	Y27	Z27	X28	Y28	Z28	X29	Y29	Z29	X30	Y30	Z30	X31	Y31	Z31	X32	Y32	Z32	X33	Y33	Z33	

18	7.568500000000	695.998036210592	1008.174573239027	601.619000009471	857.043202529047	1418.382040406157	378.656308668767	985.180175572351	1351.047891439720	520.655153041850	941.350074569040	1436.961271302206	702.671390448396	874.676328593880	1487.147700161936	530.573826302890	935.097262903543	928.330863735449	678.250623670305	881.804413883711	958.298916730904	409.410464400685	946.354730797281	719.431584074498	635.071875926578	858.265517601178	613.157508268472	694.735816835669	919.203499224079	559.866175379918	603.556114571084	908.349629277714	467.825673787113	604.643873259274	961.549302702213	775.288606860771	440.200082087600	911.887416188534	650.554826129973	360.287191131326	1009.253076218612	585.617197773956	424.580345906306	1033.238203098287	516.662593331303	417.039101328382	1006.594087344740	444.925853570050	401.446084551831	925.526396769696	329.612444772515	339.219680370341	994.875862410310	215.842139438058	390.513965620064	859.724226075467	385.347588624124	609.650476170561	771.826775183678	293.889155392249	669.433893968234	788.606915347445	197.572248499329	599.961365256501	625.040741321895	48.785294789601	565.187646642321	797.156076420124	96.087582107659	604.935644439631	705.788269136857	39.322006491129	641.581425372766	913.869671999457	38.959600599895	639.114104467960	885.246413142682	46.703120893381	414.513545005866	962.740606113049	48.014849334276	338.070868240933	1040.984044777017	115.953671118920	365.528055518054	1171.137241926767	74.353669445210	342.234093052454	704.726630830838	1092.786775228130	306.343143090467	663.401343084131	837.516234559425	333.497248614632	1078.876624397810	1130.882313478847	831.244494040702	1327.109929394375	1122.553398584106	767.168191418821	
19	7.589000000000	696.128335513233	1009.006395726799	600.573375025569	855.940826752432	1418.690923739222	376.395287968784	985.441573614494	1350.960797741881	517.070249117672	943.595869778893	1437.453352274318	699.175699400712	875.018016608581	1487.289134516278	528.105718926617	935.110413067349	928.115796535036	675.750651652147	880.548143377890	958.434184647306	407.088048201255	942.841144075497	718.619626060014	633.174273033053	853.516364330514	613.635950108599	693.915925478731	912.990302802732	559.276860988148	602.747998602467	900.759928513844	467.930948172806	604.168748718788	958.374485408039	773.760530084130	436.116313336186	905.583111801228	649.478931660469	356.968857075093	1003.203588119486	583.992974485650	420.044116351066	1027.374261169613	517.598539436742	413.834473940566	1004.685187735381	446.266033007010	398.868675095005	931.037115482340	325.731074376276	336.111271887048	1006.524391291582	216.208739059582	388.951238300404	852.634646366996	385.612802530190	609.447241430316	764.894958276985	294.070376323128	669.323811136558	781.966766853656	197.687879647532	599.932656142720	618.741618673921	48.507166857097	565.258645976287	790.917621550421	96.097442382817	605.016517713452	699.529093952168	39.183605069051	641.624550363097	907.625130450839	39.010885982917	639.103889750228	905.467381100070	42.349963689886	411.994845833033	984.802907552242	45.384554796073	337.340135163905	1059.607296297650	117.021888600658	365.743239800379	1192.186186599615	80.163853316204	346.386705428972	699.301376877549	1095.577947235919	305.834172202687	657.039533216921	840.321293664725	334.415186189732	1091.797791366729	1137.900357545139	825.668101859200	1338.038625192839	1148.234959093940	755.959659623271	
20	7.609500000000	696.481705115276	1009.147166421764	599.082551622774	855.322586686626	1418.287208081197	373.656761219045	985.874390655461	1350.327677793747	513.364435973010	945.490910685781	1437.444663084089	695.384824529237	875.469742132336	1486.872134624077	525.192588494839	935.365784499974	927.493154963647	673.305727918580	879.821056725595	957.840213767315	404.753284520366	939.949808645057	717.519910645331	631.279315564193	849.434263060600	613.724202790019	692.937606134743	907.578911043507	558.374517044601	601.845590901008	893.990000249708	467.628266892216	603.537554328528	955.781027646971	771.438769990136	431.916496777792	899.604785908302	647.591578417761	353.865083952532	997.618513306320	581.686166962091	415.700631426672	1021.654486155351	517.481300067631	410.796865120235	1002.319155893562	446.640846978319	396.406235919242	934.864178596842	322.027316142274	333.701902589698	1015.469876498186	216.390730090999	387.721466966356	846.188011843809	385.489330169828	609.069707587999	758.427744182033	294.049132606286	669.092125587834	775.557939973392	197.565716510610	599.797357642209	612.430822321066	48.157431202282	565.280634131402	784.639292150161	96.068033605371	605.032264660292	693.257478369280	39.000749305706	641.640933361790	901.381688329415	39.067448834390	639.093188132891	921.624914051919	39.335206230970	410.337027725742	1002.320184696652	43.630272662464	337.052398208015	1074.385656339553	117.905455823603	366.178059690596	1208.624582995612	84.604561689024	349.906753347299	695.535451827581	1097.052619055065	304.888995236932	652.886940942728	841.685598975092	335.014083959444	1103.602047287025	1144.411381899434	819.788399422785	1346.669353316439	1171.912625555983	745.094434689942	
21	7.630000000000	697.068812742778	1008.672776566540	597.161973342861	855.149300874930	1417.234956788696	370.425398992988	986.477124283922	1349.233031305371	509.507314001083	947.060544660512	1437.006696995643	691.299199423092	876.010443778535	1485.966508832809	521.806151712397	935.906392560020	926.524875081369	670.888431191283	879.625626808143	956.619551011837	402.387581582350	937.761017860456	716.168152074460	629.369444874130	846.091058257348	613.451886910794	691.770676108190	903.057656326269	557.188428306174	600.814791134647	888.139383572701	466.933343058014	602.718028747660	953.886845713012	768.560695927056	427.742000301053	894.281843779219	645.090254472279	351.063491539401	992.794623147372	578.960203484904	411.703906526103	1016.410739150769	516.482281952449	408.014890044304	999.785757882315	446.110677338796	394.113950080039	937.081026945164	318.505345056969	331.983134654221	1021.719948699160	216.175189234591	386.810067399085	840.451819935979	385.004478741991	608.497686945529	752.485922067689	293.873954611056	668.740847651331	769.417646983344	197.246493218735	599.562840049988	606.123857633171	47.808760954912	565.271505405140	778.353383936583	96.021637608632	605.008972474476	686.985237845285	38.810208805130	641.640265071767	895.148089363070	39.114734397748	639.083967051568	933.425948887562	37.380249260466	409.499459893137	1014.998324708976	42.420986202426	337.116631142930	1085.194237378873	118.240454458793	366.763061820076	1220.392893241024	87.148341465054	352.622951531269	693.418081164660	1097.209353690253	303.469881830625	650.827340873570	841.654501026644	335.202600259265	1114.204355368087	1150.328111971478	813.705942105224	1353.259866997500	1193.339226227407	734.661808943649	
